<svg width="80" height="81" viewBox="0 0 80 81" fill="none" xmlns="http://www.w3.org/2000/svg">
<path d="M68.4 13.3248C67.0251 10.4522 64.856 8.03372 62.1495 6.35551C59.4429 4.67729 56.3123 3.80963 53.128 3.85522C49.9437 3.90081 46.8391 4.85774 44.1817 6.61275C41.5243 8.36776 39.4254 10.8474 38.1333 13.7581H23.3333C20.6811 13.7581 18.1376 14.8117 16.2622 16.687C14.3869 18.5624 13.3333 21.1059 13.3333 23.7581V37.0914C13.3333 37.9755 13.6845 38.8233 14.3096 39.4484C14.9347 40.0736 15.7826 40.4248 16.6666 40.4248C17.5507 40.4248 18.3985 40.0736 19.0237 39.4484C19.6488 38.8233 20 37.9755 20 37.0914V23.7581C20 22.874 20.3512 22.0262 20.9763 21.4011C21.6014 20.7759 22.4493 20.4248 23.3333 20.4248H32.6C30.9407 22.2502 30.0147 24.6246 30 27.0914C30 29.7436 31.0535 32.2871 32.9289 34.1625C34.8043 36.0379 37.3478 37.0914 40 37.0914H64.4333C67.3358 37.1123 70.1507 36.0977 72.3723 34.2298C74.594 32.3619 76.0769 29.7631 76.5548 26.9001C77.0326 24.0372 76.474 21.0976 74.9794 18.6095C73.4847 16.1213 71.1519 14.2476 68.4 13.3248ZM64.4333 30.4248H40C39.1159 30.4248 38.2681 30.0736 37.643 29.4484C37.0178 28.8233 36.6666 27.9755 36.6666 27.0914C36.6666 26.2074 37.0178 25.3595 37.643 24.7344C38.2681 24.1093 39.1159 23.7581 40 23.7581C40.884 23.7581 41.7319 23.4069 42.357 22.7818C42.9821 22.1567 43.3333 21.3088 43.3333 20.4248C43.3064 18.0459 44.1285 15.7355 45.6518 13.9082C47.1752 12.081 49.3001 10.8567 51.6449 10.4551C53.9897 10.0536 56.4009 10.5012 58.4454 11.7175C60.49 12.9338 62.0339 14.8392 62.8 17.0914C62.9905 17.6642 63.333 18.1745 63.7909 18.5679C64.2489 18.9612 64.805 19.2228 65.4 19.3248C66.7035 19.5407 67.8857 20.2187 68.7304 21.2348C69.5751 22.2509 70.0258 23.537 70 24.8581C70 25.5891 69.856 26.313 69.5762 26.9884C69.2965 27.6637 68.8865 28.2774 68.3695 28.7943C67.8526 29.3112 67.239 29.7213 66.5636 30.001C65.8882 30.2808 65.1643 30.4248 64.4333 30.4248ZM63.3333 43.7581C62.4493 43.7581 61.6014 44.1093 60.9763 44.7344C60.3512 45.3595 60 46.2074 60 47.0914V57.0914C60 57.9755 59.6488 58.8233 59.0237 59.4484C58.3986 60.0736 57.5507 60.4248 56.6666 60.4248H49.1333C48.4891 58.7751 47.4935 57.2855 46.2156 56.0595C44.9377 54.8334 43.4082 53.9002 41.7333 53.3248C40.2228 50.1191 37.7298 47.4784 34.6164 45.786C31.503 44.0936 27.9312 43.4376 24.4196 43.9132C20.908 44.3889 17.6393 45.9714 15.0883 48.4311C12.5373 50.8907 10.8367 54.0995 10.2333 57.5914C7.97593 58.3334 6.05651 59.8549 4.81898 61.8834C3.58145 63.9119 3.10669 66.3148 3.47975 68.6615C3.85282 71.0082 5.04934 73.1454 6.85492 74.6901C8.6605 76.2348 10.9571 77.0861 13.3333 77.0914H37.7666C40.6207 77.0914 43.3844 76.0908 45.5769 74.2637C47.7694 72.4366 49.252 69.8987 49.7666 67.0914H56.6666C59.3188 67.0914 61.8624 66.0379 63.7377 64.1625C65.6131 62.2871 66.6666 59.7436 66.6666 57.0914V47.0914C66.6666 46.2074 66.3155 45.3595 65.6903 44.7344C65.0652 44.1093 64.2174 43.7581 63.3333 43.7581ZM37.7666 70.4248H13.3333C12.4493 70.4248 11.6014 70.0736 10.9763 69.4484C10.3512 68.8233 9.99998 67.9755 9.99998 67.0914C9.99998 66.2074 10.3512 65.3595 10.9763 64.7344C11.6014 64.1093 12.4493 63.7581 13.3333 63.7581C14.2174 63.7581 15.0652 63.4069 15.6903 62.7818C16.3155 62.1567 16.6666 61.3088 16.6666 60.4248C16.6397 58.0459 17.4618 55.7355 18.9852 53.9082C20.5085 52.081 22.6334 50.8567 24.9782 50.4551C27.3231 50.0536 29.7342 50.5012 31.7788 51.7175C33.8233 52.9338 35.3672 54.8392 36.1333 57.0914C36.3238 57.6642 36.6664 58.1745 37.1243 58.5679C37.5822 58.9612 38.1383 59.2228 38.7333 59.3248C40.0368 59.5407 41.2191 60.2187 42.0637 61.2348C42.9084 62.2509 43.3591 63.537 43.3333 64.8581C43.3333 65.5891 43.1893 66.313 42.9096 66.9884C42.6298 67.6637 42.2198 68.2774 41.7029 68.7943C41.186 69.3112 40.5723 69.7213 39.8969 70.001C39.2215 70.2808 38.4977 70.4248 37.7666 70.4248Z" fill="#5375D9"/>
</svg>
