<svg width="81" height="81" viewBox="0 0 81 81" fill="none" xmlns="http://www.w3.org/2000/svg">
<path d="M64.0002 7.09155H17.3335C14.6813 7.09155 12.1378 8.14512 10.2624 10.0205C8.38706 11.8958 7.3335 14.4394 7.3335 17.0916V50.4249C7.3335 53.077 8.38706 55.6206 10.2624 57.496C12.1378 59.3713 14.6813 60.4249 17.3335 60.4249H27.3335V67.0916H17.3335C16.4494 67.0916 15.6016 67.4427 14.9765 68.0679C14.3514 68.693 14.0002 69.5408 14.0002 70.4249C14.0002 71.3089 14.3514 72.1568 14.9765 72.7819C15.6016 73.407 16.4494 73.7582 17.3335 73.7582H64.0002C64.8842 73.7582 65.7321 73.407 66.3572 72.7819C66.9823 72.1568 67.3335 71.3089 67.3335 70.4249C67.3335 69.5408 66.9823 68.693 66.3572 68.0679C65.7321 67.4427 64.8842 67.0916 64.0002 67.0916H54.0002V60.4249H64.0002C66.6523 60.4249 69.1959 59.3713 71.0712 57.496C72.9466 55.6206 74.0002 53.077 74.0002 50.4249V17.0916C74.0002 14.4394 72.9466 11.8958 71.0712 10.0205C69.1959 8.14512 66.6523 7.09155 64.0002 7.09155ZM47.3335 67.0916H34.0002V60.4249H47.3335V67.0916ZM67.3335 50.4249C67.3335 51.3089 66.9823 52.1568 66.3572 52.7819C65.7321 53.407 64.8842 53.7582 64.0002 53.7582H17.3335C16.4494 53.7582 15.6016 53.407 14.9765 52.7819C14.3514 52.1568 14.0002 51.3089 14.0002 50.4249V47.0916H67.3335V50.4249ZM67.3335 40.4249H14.0002V17.0916C14.0002 16.2075 14.3514 15.3597 14.9765 14.7345C15.6016 14.1094 16.4494 13.7582 17.3335 13.7582H64.0002C64.8842 13.7582 65.7321 14.1094 66.3572 14.7345C66.9823 15.3597 67.3335 16.2075 67.3335 17.0916V40.4249Z" fill="#5375D9"/>
</svg>
