<svg width="81" height="81" viewBox="0 0 81 81" fill="none" xmlns="http://www.w3.org/2000/svg">
<path d="M75.6701 7.29821C75.52 6.72703 75.2208 6.20599 74.8032 5.78839C74.3856 5.3708 73.8646 5.07164 73.2934 4.92154C66.4559 3.14602 59.2561 3.33755 52.5227 5.47409C45.7893 7.61063 39.7962 11.6053 35.2334 16.9982L31.5134 21.4115L22.8334 19.3182C20.7226 18.5817 18.4165 18.634 16.3413 19.4655C14.266 20.2969 12.5618 21.8513 11.5434 23.8415L4.21006 36.8415C3.9533 37.2967 3.80717 37.8059 3.78346 38.328C3.75975 38.8501 3.85914 39.3704 4.07359 39.847C4.28803 40.3236 4.61154 40.7431 5.01799 41.0716C5.42443 41.4001 5.90243 41.6285 6.41339 41.7382L16.6567 43.9349C15.7893 46.576 15.17 49.2922 14.8067 52.0482C14.7407 52.5542 14.7917 53.0685 14.9559 53.5517C15.12 54.0348 15.3928 54.4738 15.7534 54.8349L26.0867 65.1682C26.3966 65.4782 26.7645 65.724 27.1695 65.8915C27.5744 66.0591 28.0085 66.1452 28.4467 66.1449C28.5424 66.1453 28.6381 66.1409 28.7334 66.1315C31.5517 65.8783 34.3357 65.3309 37.0401 64.4982L39.1867 74.5115C39.2965 75.0225 39.5248 75.5005 39.8533 75.9069C40.1819 76.3134 40.6013 76.6369 41.0779 76.8513C41.5545 77.0658 42.0749 77.1652 42.5969 77.1415C43.119 77.1178 43.6282 76.9716 44.0834 76.7149L57.1001 69.3749C58.9325 68.2617 60.3639 66.5951 61.1877 64.6156C62.0115 62.6361 62.185 60.4461 61.6834 58.3615L59.4567 49.1615L63.5801 45.3715C68.9926 40.8207 73.0018 34.8266 75.1415 28.0866C77.2811 21.3466 77.4666 14.1377 75.6701 7.29821ZM12.2401 36.1682L17.4267 26.9682C17.7495 26.3441 18.2986 25.867 18.9617 25.6346C19.6248 25.4022 20.3516 25.4321 20.9934 25.7182L26.7201 27.1049L24.5534 29.6782C22.4985 32.1399 20.7211 34.8205 19.2534 37.6715L12.2401 36.1682ZM53.8067 63.5749L44.7567 68.6815L43.3234 61.9982C46.2262 60.5509 48.9306 58.736 51.3701 56.5982L53.8467 54.3215L55.1934 59.8682C55.3676 60.5537 55.3281 61.2761 55.0803 61.9386C54.8325 62.6011 54.3881 63.172 53.8067 63.5749ZM59.1901 40.3582L46.9067 51.6449C42.0456 55.8487 36.0496 58.5208 29.6734 59.3249L21.6567 51.3115C22.7332 44.9181 25.496 38.9277 29.6601 33.9582L35.2567 27.3149C35.3497 27.2182 35.4365 27.1158 35.5167 27.0082L40.3001 21.3249C43.8369 17.1478 48.4189 13.9842 53.5782 12.1571C58.7375 10.3299 64.2893 9.90472 69.6667 10.9249C70.7112 16.319 70.2901 21.8945 68.4475 27.0706C66.6049 32.2467 63.4081 36.8374 59.1901 40.3582ZM56.1134 19.8115C55.1245 19.8115 54.1578 20.1048 53.3355 20.6542C52.5133 21.2036 51.8724 21.9845 51.494 22.8981C51.1156 23.8118 51.0165 24.8171 51.2095 25.787C51.4024 26.7569 51.8786 27.6478 52.5779 28.3471C53.2771 29.0463 54.168 29.5225 55.1379 29.7155C56.1078 29.9084 57.1132 29.8094 58.0268 29.4309C58.9404 29.0525 59.7213 28.4116 60.2707 27.5894C60.8201 26.7671 61.1134 25.8004 61.1134 24.8115C61.1134 23.4855 60.5866 22.2137 59.6489 21.276C58.7112 20.3383 57.4395 19.8115 56.1134 19.8115Z" fill="#5375D9"/>
</svg>
