<svg width="60" height="61" viewBox="0 0 60 61" fill="none" xmlns="http://www.w3.org/2000/svg">
<path d="M37.5 35.4248H22.5C21.837 35.4248 21.2011 35.6882 20.7322 36.157C20.2634 36.6259 20 37.2618 20 37.9248C20 38.5878 20.2634 39.2237 20.7322 39.6926C21.2011 40.1614 21.837 40.4248 22.5 40.4248H37.5C38.163 40.4248 38.7989 40.1614 39.2678 39.6926C39.7366 39.2237 40 38.5878 40 37.9248C40 37.2618 39.7366 36.6259 39.2678 36.157C38.7989 35.6882 38.163 35.4248 37.5 35.4248ZM37.5 25.4248H27.5C26.837 25.4248 26.2011 25.6882 25.7322 26.157C25.2634 26.6259 25 27.2618 25 27.9248C25 28.5878 25.2634 29.2237 25.7322 29.6926C26.2011 30.1614 26.837 30.4248 27.5 30.4248H37.5C38.163 30.4248 38.7989 30.1614 39.2678 29.6926C39.7366 29.2237 40 28.5878 40 27.9248C40 27.2618 39.7366 26.6259 39.2678 26.157C38.7989 25.6882 38.163 25.4248 37.5 25.4248ZM42.5 10.4248H39.55C39.0342 8.96593 38.0798 7.7023 36.8177 6.80715C35.5555 5.912 34.0474 5.42915 32.5 5.4248H27.5C25.9526 5.42915 24.4445 5.912 23.1823 6.80715C21.9202 7.7023 20.9658 8.96593 20.45 10.4248H17.5C15.5109 10.4248 13.6032 11.215 12.1967 12.6215C10.7902 14.028 10 15.9357 10 17.9248V47.9248C10 49.9139 10.7902 51.8216 12.1967 53.2281C13.6032 54.6346 15.5109 55.4248 17.5 55.4248H42.5C44.4891 55.4248 46.3968 54.6346 47.8033 53.2281C49.2098 51.8216 50 49.9139 50 47.9248V17.9248C50 15.9357 49.2098 14.028 47.8033 12.6215C46.3968 11.215 44.4891 10.4248 42.5 10.4248ZM25 12.9248C25 12.2618 25.2634 11.6259 25.7322 11.157C26.2011 10.6882 26.837 10.4248 27.5 10.4248H32.5C33.163 10.4248 33.7989 10.6882 34.2678 11.157C34.7366 11.6259 35 12.2618 35 12.9248V15.4248H25V12.9248ZM45 47.9248C45 48.5878 44.7366 49.2237 44.2678 49.6926C43.7989 50.1614 43.163 50.4248 42.5 50.4248H17.5C16.837 50.4248 16.2011 50.1614 15.7322 49.6926C15.2634 49.2237 15 48.5878 15 47.9248V17.9248C15 17.2618 15.2634 16.6259 15.7322 16.157C16.2011 15.6882 16.837 15.4248 17.5 15.4248H20V17.9248C20 18.5878 20.2634 19.2237 20.7322 19.6926C21.2011 20.1614 21.837 20.4248 22.5 20.4248H37.5C38.163 20.4248 38.7989 20.1614 39.2678 19.6926C39.7366 19.2237 40 18.5878 40 17.9248V15.4248H42.5C43.163 15.4248 43.7989 15.6882 44.2678 16.157C44.7366 16.6259 45 17.2618 45 17.9248V47.9248Z" fill="#222222"/>
</svg>
