<svg width="60" height="61" viewBox="0 0 60 61" fill="none" xmlns="http://www.w3.org/2000/svg">
<path d="M22.5 42.9248H32.5C35.8152 42.9248 38.9946 41.6078 41.3388 39.2636C43.683 36.9194 45 33.74 45 30.4248V27.9248H47.5C49.4891 27.9248 51.3968 27.1346 52.8033 25.7281C54.2098 24.3216 55 22.4139 55 20.4248C55 18.4357 54.2098 16.528 52.8033 15.1215C51.3968 13.715 49.4891 12.9248 47.5 12.9248H45V10.4248C45 9.76176 44.7366 9.12588 44.2678 8.65704C43.7989 8.1882 43.163 7.9248 42.5 7.9248H12.5C11.837 7.9248 11.2011 8.1882 10.7322 8.65704C10.2634 9.12588 10 9.76176 10 10.4248V30.4248C10 33.74 11.317 36.9194 13.6612 39.2636C16.0054 41.6078 19.1848 42.9248 22.5 42.9248ZM45 17.9248H47.5C48.163 17.9248 48.7989 18.1882 49.2678 18.657C49.7366 19.1259 50 19.7618 50 20.4248C50 21.0878 49.7366 21.7237 49.2678 22.1926C48.7989 22.6614 48.163 22.9248 47.5 22.9248H45V17.9248ZM15 12.9248H40V30.4248C40 32.4139 39.2098 34.3216 37.8033 35.7281C36.3968 37.1346 34.4891 37.9248 32.5 37.9248H22.5C20.5109 37.9248 18.6032 37.1346 17.1967 35.7281C15.7902 34.3216 15 32.4139 15 30.4248V12.9248ZM52.5 47.9248H7.5C6.83696 47.9248 6.20107 48.1882 5.73223 48.657C5.26339 49.1259 5 49.7618 5 50.4248C5 51.0878 5.26339 51.7237 5.73223 52.1926C6.20107 52.6614 6.83696 52.9248 7.5 52.9248H52.5C53.163 52.9248 53.7989 52.6614 54.2678 52.1926C54.7366 51.7237 55 51.0878 55 50.4248C55 49.7618 54.7366 49.1259 54.2678 48.657C53.7989 48.1882 53.163 47.9248 52.5 47.9248Z" fill="#222222"/>
</svg>
