<svg width="60" height="64" viewBox="0 0 60 64" fill="none" xmlns="http://www.w3.org/2000/svg">
<g filter="url(#filter0_d_19_2276)">
<path d="M30 20.4248C29.337 20.4248 28.7011 20.6882 28.2322 21.157C27.7634 21.6259 27.5 22.2618 27.5 22.9248V32.9248C27.5 33.5878 27.7634 34.2237 28.2322 34.6926C28.7011 35.1614 29.337 35.4248 30 35.4248C30.663 35.4248 31.2989 35.1614 31.7678 34.6926C32.2366 34.2237 32.5 33.5878 32.5 32.9248V22.9248C32.5 22.2618 32.2366 21.6259 31.7678 21.157C31.2989 20.6882 30.663 20.4248 30 20.4248ZM20 27.9248C19.337 27.9248 18.7011 28.1882 18.2322 28.657C17.7634 29.1259 17.5 29.7618 17.5 30.4248V32.9248C17.5 33.5878 17.7634 34.2237 18.2322 34.6926C18.7011 35.1614 19.337 35.4248 20 35.4248C20.663 35.4248 21.2989 35.1614 21.7678 34.6926C22.2366 34.2237 22.5 33.5878 22.5 32.9248V30.4248C22.5 29.7618 22.2366 29.1259 21.7678 28.657C21.2989 28.1882 20.663 27.9248 20 27.9248ZM47.5 5.4248H12.5C10.5109 5.4248 8.60322 6.21498 7.1967 7.6215C5.79018 9.02803 5 10.9357 5 12.9248V37.9248C5 39.9139 5.79018 41.8216 7.1967 43.2281C8.60322 44.6346 10.5109 45.4248 12.5 45.4248H41.475L50.725 54.6998C50.9586 54.9315 51.2356 55.1148 51.5402 55.2392C51.8448 55.3636 52.171 55.4267 52.5 55.4248C52.8279 55.4333 53.1533 55.3648 53.45 55.2248C53.9065 55.0373 54.2974 54.7188 54.5732 54.3095C54.849 53.9002 54.9975 53.4184 55 52.9248V12.9248C55 10.9357 54.2098 9.02803 52.8033 7.6215C51.3968 6.21498 49.4891 5.4248 47.5 5.4248ZM50 46.8998L44.275 41.1498C44.0414 40.9181 43.7644 40.7348 43.4598 40.6104C43.1552 40.486 42.829 40.4229 42.5 40.4248H12.5C11.837 40.4248 11.2011 40.1614 10.7322 39.6926C10.2634 39.2237 10 38.5878 10 37.9248V12.9248C10 12.2618 10.2634 11.6259 10.7322 11.157C11.2011 10.6882 11.837 10.4248 12.5 10.4248H47.5C48.163 10.4248 48.7989 10.6882 49.2678 11.157C49.7366 11.6259 50 12.2618 50 12.9248V46.8998ZM40 15.4248C39.337 15.4248 38.7011 15.6882 38.2322 16.157C37.7634 16.6259 37.5 17.2618 37.5 17.9248V32.9248C37.5 33.5878 37.7634 34.2237 38.2322 34.6926C38.7011 35.1614 39.337 35.4248 40 35.4248C40.663 35.4248 41.2989 35.1614 41.7678 34.6926C42.2366 34.2237 42.5 33.5878 42.5 32.9248V17.9248C42.5 17.2618 42.2366 16.6259 41.7678 16.157C41.2989 15.6882 40.663 15.4248 40 15.4248Z" fill="#222222"/>
</g>
<defs>
<filter id="filter0_d_19_2276" x="-4" y="0.424805" width="68" height="68" filterUnits="userSpaceOnUse" color-interpolation-filters="sRGB">
<feFlood flood-opacity="0" result="BackgroundImageFix"/>
<feColorMatrix in="SourceAlpha" type="matrix" values="0 0 0 0 0 0 0 0 0 0 0 0 0 0 0 0 0 0 127 0" result="hardAlpha"/>
<feOffset dy="4"/>
<feGaussianBlur stdDeviation="2"/>
<feComposite in2="hardAlpha" operator="out"/>
<feColorMatrix type="matrix" values="0 0 0 0 0 0 0 0 0 0 0 0 0 0 0 0 0 0 0.25 0"/>
<feBlend mode="normal" in2="BackgroundImageFix" result="effect1_dropShadow_19_2276"/>
<feBlend mode="normal" in="SourceGraphic" in2="effect1_dropShadow_19_2276" result="shape"/>
</filter>
</defs>
</svg>
