<svg width="60" height="61" viewBox="0 0 60 61" fill="none" xmlns="http://www.w3.org/2000/svg">
<path d="M47.5 5.4248H12.5C10.5109 5.4248 8.60322 6.21498 7.1967 7.6215C5.79018 9.02803 5 10.9357 5 12.9248V37.9248C5 39.9139 5.79018 41.8216 7.1967 43.2281C8.60322 44.6346 10.5109 45.4248 12.5 45.4248H20V50.4248H12.5C11.837 50.4248 11.2011 50.6882 10.7322 51.157C10.2634 51.6259 10 52.2618 10 52.9248C10 53.5878 10.2634 54.2237 10.7322 54.6926C11.2011 55.1614 11.837 55.4248 12.5 55.4248H47.5C48.163 55.4248 48.7989 55.1614 49.2678 54.6926C49.7366 54.2237 50 53.5878 50 52.9248C50 52.2618 49.7366 51.6259 49.2678 51.157C48.7989 50.6882 48.163 50.4248 47.5 50.4248H40V45.4248H47.5C49.4891 45.4248 51.3968 44.6346 52.8033 43.2281C54.2098 41.8216 55 39.9139 55 37.9248V12.9248C55 10.9357 54.2098 9.02803 52.8033 7.6215C51.3968 6.21498 49.4891 5.4248 47.5 5.4248ZM35 50.4248H25V45.4248H35V50.4248ZM50 37.9248C50 38.5878 49.7366 39.2237 49.2678 39.6926C48.7989 40.1614 48.163 40.4248 47.5 40.4248H12.5C11.837 40.4248 11.2011 40.1614 10.7322 39.6926C10.2634 39.2237 10 38.5878 10 37.9248V35.4248H50V37.9248ZM50 30.4248H10V12.9248C10 12.2618 10.2634 11.6259 10.7322 11.157C11.2011 10.6882 11.837 10.4248 12.5 10.4248H47.5C48.163 10.4248 48.7989 10.6882 49.2678 11.157C49.7366 11.6259 50 12.2618 50 12.9248V30.4248Z" fill="#222222"/>
</svg>
